# 3ds Max Wavefront OBJ Exporter v0.97b - (c)2007 guruware
# 创建的文件:17.10.2018 23:56:02

mtllib obj1.mtl

#
# object 对象003
#

v  -9.4824 9.2010 3.3729
v  -9.4824 7.3619 3.3729
v  -9.4824 7.3619 -3.5387
v  -9.4824 9.2010 -3.5387
v  -9.4824 0.0292 -3.5387
v  -9.4824 4.5301 -3.5387
v  -9.4824 4.5301 3.3729
v  -9.4824 0.0292 3.3729
v  -3.9943 9.2010 -8.1434
v  -3.9943 7.3619 -8.1434
v  4.2434 7.3619 -8.1434
v  4.2434 9.2010 -8.1434
v  4.2434 0.0292 -8.1434
v  4.2434 4.5301 -8.1434
v  -3.9943 4.5301 -8.1434
v  -3.9943 0.0292 -8.1434
v  9.7315 9.2010 -3.5387
v  9.7315 7.3619 -3.5387
v  9.7315 7.3619 3.3729
v  9.7315 9.2010 3.3729
v  9.7315 0.0292 3.3729
v  9.7315 4.5301 3.3729
v  9.7315 4.5301 -3.5387
v  9.7315 0.0292 -3.5387
v  -9.4824 7.3619 7.9776
v  -9.4824 4.5301 7.9776
v  -9.4824 4.5301 -8.1434
v  -9.4824 7.3619 -8.1434
v  9.7315 7.3619 -8.1434
v  9.7315 4.5301 -8.1434
v  9.7315 4.5301 7.9776
v  9.7315 7.3619 7.9776
v  -9.4824 9.2010 7.9776
v  -9.4824 9.2010 -8.1434
v  -9.4824 0.0292 -8.1434
v  -9.4824 0.0262 7.9776
v  9.7315 9.2010 -8.1434
v  9.7315 9.2010 7.9776
v  9.7315 0.0262 7.9776
v  9.7315 0.0292 -8.1434
v  -10.1321 7.3619 3.3729
v  -10.1321 7.3619 -3.5387
v  -10.1321 4.5301 3.3729
v  -10.1321 4.5301 -3.5387
v  10.3812 7.3619 -3.5387
v  10.3812 7.3619 3.3729
v  10.3812 4.5301 -3.5387
v  10.3812 4.5301 3.3729
v  -3.9943 7.3619 -8.7488
v  4.2434 7.3619 -8.7488
v  4.2434 4.5301 -8.7488
v  -3.9943 4.5301 -8.7488
# 52 vertices

vn 1.0000 0.0000 -0.0000
vn 0.0000 0.0000 1.0000
vn -1.0000 0.0000 -0.0000
vn 0.0000 -1.0000 -0.0000
vn 0.0000 -0.0000 -1.0000
vn 0.0000 1.0000 -0.0000
vn 0.0000 -0.0000 1.0000
vn 0.0000 0.0000 -1.0000
# 8 vertex normals

vt 0.4008 0.6786 0.0000
vt 0.4008 0.7410 0.0000
vt 0.1663 0.7410 0.0000
vt 0.1663 0.6786 0.0000
vt 0.1663 0.9899 0.0000
vt 0.1663 0.8372 0.0000
vt 0.4008 0.8372 0.0000
vt 0.4008 0.9899 0.0000
vt 0.4758 0.0100 0.0000
vt 0.4758 0.0724 0.0000
vt 0.1962 0.0724 0.0000
vt 0.1962 0.0100 0.0000
vt 0.1962 0.3213 0.0000
vt 0.1962 0.1685 0.0000
vt 0.4758 0.1685 0.0000
vt 0.4758 0.3213 0.0000
vt 0.4008 0.3443 0.0000
vt 0.4008 0.4067 0.0000
vt 0.1663 0.4067 0.0000
vt 0.1663 0.3443 0.0000
vt 0.1663 0.6555 0.0000
vt 0.1663 0.5028 0.0000
vt 0.4008 0.5028 0.0000
vt 0.4008 0.6555 0.0000
vt 0.5571 0.7410 0.0000
vt 0.5571 0.8372 0.0000
vt 0.0100 0.8372 0.0000
vt 0.0100 0.7410 0.0000
vt 0.5571 0.4067 0.0000
vt 0.5571 0.5028 0.0000
vt 0.0100 0.5028 0.0000
vt 0.0100 0.4067 0.0000
vt 0.5571 0.6786 0.0000
vt 0.0100 0.6786 0.0000
vt 0.0100 0.9899 0.0000
vt 0.5571 0.9900 0.0000
vt 0.5571 0.3443 0.0000
vt 0.0100 0.3443 0.0000
vt 0.0100 0.6556 0.0000
vt 0.5571 0.6555 0.0000
vt 0.2296 0.1366 0.0000
vt 0.4641 0.1366 0.0000
vt 0.4641 0.1586 0.0000
vt 0.2296 0.1586 0.0000
vt 0.3907 0.4929 0.0000
vt 0.2946 0.4929 0.0000
vt 0.2946 0.4709 0.0000
vt 0.3907 0.4709 0.0000
vt 0.5801 0.6786 0.0000
vt 0.8147 0.6786 0.0000
vt 0.8147 0.7007 0.0000
vt 0.5801 0.7007 0.0000
vt 0.1908 0.7755 0.0000
vt 0.2869 0.7755 0.0000
vt 0.2869 0.7976 0.0000
vt 0.1908 0.7976 0.0000
vt 0.4641 0.1289 0.0000
vt 0.2296 0.1289 0.0000
vt 0.2296 0.1068 0.0000
vt 0.4641 0.1068 0.0000
vt 0.3907 0.7976 0.0000
vt 0.2946 0.7976 0.0000
vt 0.2946 0.7755 0.0000
vt 0.3907 0.7755 0.0000
vt 0.9196 0.0756 0.0000
vt 0.6851 0.0756 0.0000
vt 0.6851 0.0536 0.0000
vt 0.9196 0.0536 0.0000
vt 0.2946 0.8052 0.0000
vt 0.3907 0.8052 0.0000
vt 0.3907 0.8273 0.0000
vt 0.2946 0.8273 0.0000
vt 0.6621 0.0724 0.0000
vt 0.6621 0.1685 0.0000
vt 0.0100 0.1685 0.0000
vt 0.0100 0.0724 0.0000
vt 0.0100 0.3213 0.0000
vt 0.6621 0.3213 0.0000
vt 0.5801 0.3443 0.0000
vt 0.8597 0.3443 0.0000
vt 0.8597 0.3648 0.0000
vt 0.5801 0.3648 0.0000
vt 0.9646 0.0305 0.0000
vt 0.6851 0.0305 0.0000
vt 0.6851 0.0100 0.0000
vt 0.9646 0.0100 0.0000
vt 0.3907 0.4632 0.0000
vt 0.2946 0.4632 0.0000
vt 0.2946 0.4427 0.0000
vt 0.3907 0.4427 0.0000
vt 0.1908 0.8068 0.0000
vt 0.2869 0.8068 0.0000
vt 0.2869 0.8273 0.0000
vt 0.1908 0.8273 0.0000
vt 0.6621 0.0100 0.0000
vt 0.0100 0.0100 0.0000
# 96 texture coords

g 对象003
usemtl 01___Default
s off
f 1/1/1 2/2/1 3/3/1 
f 3/3/1 4/4/1 1/1/1 
f 5/5/1 6/6/1 7/7/1 
f 7/7/1 8/8/1 5/5/1 
f 9/9/2 10/10/2 11/11/2 
f 11/11/2 12/12/2 9/9/2 
f 13/13/2 14/14/2 15/15/2 
f 15/15/2 16/16/2 13/13/2 
f 17/17/3 18/18/3 19/19/3 
f 19/19/3 20/20/3 17/17/3 
f 21/21/3 22/22/3 23/23/3 
f 23/23/3 24/24/3 21/21/3 
f 25/25/1 26/26/1 7/7/1 
f 7/7/1 2/2/1 25/25/1 
f 27/27/1 28/28/1 3/3/1 
f 3/3/1 6/6/1 27/27/1 
f 29/29/3 30/30/3 23/23/3 
f 23/23/3 18/18/3 29/29/3 
f 31/31/3 32/32/3 19/19/3 
f 19/19/3 22/22/3 31/31/3 
f 33/33/1 25/25/1 2/2/1 
f 2/2/1 1/1/1 33/33/1 
f 28/28/1 34/34/1 4/4/1 
f 4/4/1 3/3/1 28/28/1 
f 35/35/1 27/27/1 6/6/1 
f 6/6/1 5/5/1 35/35/1 
f 26/26/1 36/36/1 8/8/1 
f 8/8/1 7/7/1 26/26/1 
f 37/37/3 29/29/3 18/18/3 
f 18/18/3 17/17/3 37/37/3 
f 32/32/3 38/38/3 20/20/3 
f 20/20/3 19/19/3 32/32/3 
f 39/39/3 31/31/3 22/22/3 
f 22/22/3 21/21/3 39/39/3 
f 30/30/3 40/40/3 24/24/3 
f 24/24/3 23/23/3 30/30/3 
f 3/41/4 2/42/4 41/43/4 
f 41/43/4 42/44/4 3/41/4 
f 2/45/5 7/46/5 43/47/5 
f 43/47/5 41/48/5 2/45/5 
f 7/49/6 6/50/6 44/51/6 
f 44/51/6 43/52/6 7/49/6 
f 6/53/2 3/54/2 42/55/2 
f 42/55/2 44/56/2 6/53/2 
f 19/57/4 18/58/4 45/59/4 
f 45/59/4 46/60/4 19/57/4 
f 18/61/7 23/62/7 47/63/7 
f 47/63/7 45/64/7 18/61/7 
f 23/65/6 22/66/6 48/67/6 
f 48/67/6 47/68/6 23/65/6 
f 22/69/8 19/70/8 46/71/8 
f 46/71/8 48/72/8 22/69/8 
f 28/73/2 27/74/2 15/15/2 
f 15/15/2 10/10/2 28/73/2 
f 30/75/2 29/76/2 11/11/2 
f 11/11/2 14/14/2 30/75/2 
f 40/77/2 30/75/2 14/14/2 
f 14/14/2 13/13/2 40/77/2 
f 27/74/2 35/78/2 16/16/2 
f 16/16/2 15/15/2 27/74/2 
f 11/79/4 10/80/4 49/81/4 
f 49/81/4 50/82/4 11/79/4 
f 15/83/6 14/84/6 51/85/6 
f 51/85/6 52/86/6 15/83/6 
f 10/87/1 15/88/1 52/89/1 
f 52/89/1 49/90/1 10/87/1 
f 14/91/3 11/92/3 50/93/3 
f 50/93/3 51/94/3 14/91/3 
s 1
f 9/9/2 34/95/2 28/73/2 
f 28/73/2 10/10/2 9/9/2 
f 11/11/2 29/76/2 37/96/2 
f 37/96/2 12/12/2 11/11/2 
# 72 faces

