# 3ds Max Wavefront OBJ Exporter v0.97b - (c)2007 guruware
# 创建的文件:17.10.2018 23:57:27

mtllib obj6.mtl

#
# object 对象002
#

v  5.5527 0.7445 4.4714
v  5.5527 0.7445 -4.6373
v  -5.3036 0.7445 -4.6373
v  -5.3036 0.7445 4.4714
v  4.2434 0.0292 7.9776
v  5.5527 0.0292 4.4714
v  -5.3036 0.0292 4.4714
v  -3.9943 0.0292 7.9776
v  -3.9943 0.0292 -8.1434
v  -5.3036 0.0292 -4.6373
v  5.5527 0.0292 -4.6373
v  4.2434 0.0292 -8.1434
v  9.7315 0.0292 3.3729
v  9.7315 0.0292 -3.5387
v  -9.4824 0.0292 -3.5387
v  -9.4824 0.0292 3.3729
v  9.7315 0.0262 7.9776
v  -9.4824 0.0262 7.9776
v  -9.4824 0.0292 -8.1434
v  9.7315 0.0292 -8.1434
# 20 vertices

vn 0.0000 1.0000 -0.0000
vn 0.0002 1.0000 0.0001
vn 0.0002 1.0000 0.0002
vn -0.0001 1.0000 0.0001
vn 0.0001 1.0000 0.0003
vn -0.0002 1.0000 0.0002
vn 0.0003 1.0000 0.0005
vn -0.0006 1.0000 0.0007
vn -0.0000 0.0000 1.0000
vn 1.0000 0.0000 -0.0000
vn 0.0000 0.0000 -1.0000
vn -1.0000 0.0000 -0.0000
# 12 vertex normals

vt 0.0100 0.9900 0.0000
vt 0.0100 0.6448 0.0000
vt 0.4215 0.6448 0.0000
vt 0.4215 0.9900 0.0000
vt 0.2180 0.6210 0.0000
vt 0.1684 0.4881 0.0000
vt 0.5798 0.4881 0.0000
vt 0.5302 0.6210 0.0000
vt 0.5302 0.0100 0.0000
vt 0.5798 0.1429 0.0000
vt 0.1684 0.1429 0.0000
vt 0.2180 0.0100 0.0000
vt 0.0100 0.4465 0.0000
vt 0.0100 0.1845 0.0000
vt 0.7382 0.1845 0.0000
vt 0.7382 0.4465 0.0000
vt 0.0100 0.6210 0.0000
vt 0.7382 0.6210 0.0000
vt 0.7382 0.0100 0.0000
vt 0.0100 0.0100 0.0000
vt 0.8567 0.6719 0.0000
vt 0.4452 0.6719 0.0000
vt 0.4452 0.6448 0.0000
vt 0.8567 0.6448 0.0000
vt 0.7905 0.8245 0.0000
vt 0.4452 0.8245 0.0000
vt 0.4452 0.7974 0.0000
vt 0.7905 0.7974 0.0000
vt 0.8567 0.7228 0.0000
vt 0.4452 0.7228 0.0000
vt 0.4452 0.6957 0.0000
vt 0.8567 0.6957 0.0000
vt 0.7905 0.7736 0.0000
vt 0.4452 0.7736 0.0000
vt 0.4452 0.7465 0.0000
vt 0.7905 0.7465 0.0000
# 36 texture coords

g 对象002
usemtl 01___Default
s 1
f 1/1/1 2/2/1 3/3/1 
f 3/3/1 4/4/1 1/1/1 
f 5/5/2 6/6/3 7/7/1 
f 7/7/1 8/8/4 5/5/2 
f 9/9/1 10/10/1 11/11/1 
f 11/11/1 12/12/1 9/9/1 
f 13/13/5 14/14/1 11/11/1 
f 11/11/1 6/6/3 13/13/5 
f 15/15/1 16/16/6 7/7/1 
f 7/7/1 10/10/1 15/15/1 
f 17/17/7 13/13/5 6/6/3 
f 6/6/3 5/5/2 17/17/7 
f 16/16/6 18/18/8 8/8/4 
f 8/8/4 7/7/1 16/16/6 
f 19/19/1 15/15/1 10/10/1 
f 10/10/1 9/9/1 19/19/1 
f 14/14/1 20/20/1 12/12/1 
f 12/12/1 11/11/1 14/14/1 
s off
f 7/21/9 6/22/9 1/23/9 
f 1/23/9 4/24/9 7/21/9 
f 6/25/10 11/26/10 2/27/10 
f 2/27/10 1/28/10 6/25/10 
f 11/29/11 10/30/11 3/31/11 
f 3/31/11 2/32/11 11/29/11 
f 10/33/12 7/34/12 4/35/12 
f 4/35/12 3/36/12 10/33/12 
# 26 faces

