# 3ds Max Wavefront OBJ Exporter v0.97b - (c)2007 guruware
# 创建的文件:18.10.2018 00:33:05

mtllib obj7.mtl

#
# object 对象004
#

v  -3.3717 9.2010 7.9776
v  -3.3717 9.2010 3.3729
v  3.6208 9.2010 3.3729
v  3.6208 9.2010 7.9776
v  -3.3717 9.2010 -3.5387
v  -3.3717 9.2010 -8.1434
v  3.6208 9.2010 -8.1434
v  3.6208 9.2010 -3.5387
v  -9.4824 9.2010 7.9776
v  -9.4824 9.2010 3.3729
v  9.7315 9.2010 3.3729
v  9.7315 9.2010 7.9776
v  -9.4824 9.2010 -3.5387
v  9.7315 9.2010 -3.5387
v  -9.4824 9.2010 -8.1434
v  9.7315 9.2010 -8.1434
v  -3.3717 10.3496 3.3729
v  3.6208 10.3496 3.3729
v  -3.3717 10.3496 -3.5387
v  3.6208 10.3496 -3.5387
# 20 vertices

vn 0.0000 -1.0000 -0.0000
vn 0.0000 0.0000 -1.0000
vn 1.0000 0.0000 -0.0000
vn -0.0000 0.0000 1.0000
vn -1.0000 0.0000 -0.0000
# 5 vertex normals

vt 0.4254 0.2913 0.0000
vt 0.3265 0.2483 0.0000
vt 0.3265 0.2626 0.0000
vt 0.5226 0.1412 0.0000
vt 0.3516 0.1970 0.0000
vt 0.2872 0.6817 0.0000
vt 0.2872 0.6978 0.0000
vt 0.5706 0.1527 0.0000
vt 0.3403 0.4224 0.0000
vt 0.3265 0.2358 0.0000
vt 0.3265 0.2752 0.0000
vt 0.6077 0.0100 0.0000
vt 0.1602 0.2358 0.0000
vt 0.7620 0.1140 0.0000
vt 0.2872 0.6676 0.0000
vt 0.2872 0.7118 0.0000
# 16 texture coords

g 对象004
usemtl 01___Default
s 2
f 1/1/1 2/2/1 3/3/1 
f 3/3/1 4/4/1 1/1/1 
f 5/5/1 6/6/1 7/7/1 
f 7/7/1 8/8/1 5/5/1 
f 9/9/1 10/10/1 2/2/1 
f 2/2/1 1/1/1 9/9/1 
f 11/11/1 12/12/1 4/4/1 
f 4/4/1 3/3/1 11/11/1 
f 10/10/1 13/13/1 5/5/1 
f 5/5/1 2/2/1 10/10/1 
f 14/14/1 11/11/1 3/3/1 
f 3/3/1 8/8/1 14/14/1 
f 13/13/1 15/15/1 6/6/1 
f 6/6/1 5/5/1 13/13/1 
f 16/16/1 14/14/1 8/8/1 
f 8/8/1 7/7/1 16/16/1 
s off
f 3/3/2 2/2/2 17/2/2 
f 17/2/2 18/3/2 3/3/2 
f 2/2/3 5/5/3 19/5/3 
f 19/5/3 17/2/3 2/2/3 
f 5/5/4 8/8/4 20/8/4 
f 20/8/4 19/5/4 5/5/4 
f 8/8/5 3/3/5 18/3/5 
f 18/3/5 20/8/5 8/8/5 
# 24 faces

